<svg xmlns="http://www.w3.org/2000/svg" xmlns:xlink="http://www.w3.org/1999/xlink" width="640" zoomAndPan="magnify" viewBox="0 0 375 374.999991" height="640" preserveAspectRatio="xMidYMid meet" version="1.0"><defs><g/><clipPath id="b1ee8f8645"><path d="M 132.339844 132.179688 L 226.839844 132.179688 L 226.839844 199.679688 L 132.339844 199.679688 Z M 132.339844 132.179688 " clip-rule="nonzero"/></clipPath></defs><rect x="-37.5" width="640" fill="transparent" y="-37.499999" height="449.999989" fill-opacity="1"/><rect x="-37.5" width="640" fill="transparent" y="-37.499999" height="449.999989" fill-opacity="1"/><g clip-path="url(#b1ee8f8645)"><path fill="#000000" d="M 206.164062 167.90625 C 206.746094 170.042969 203.511719 169.425781 205.308594 167.109375 C 205.734375 167.019531 206.074219 167.570312 206.164062 167.90625 Z M 194.183594 179.695312 C 193.921875 179.832031 193.574219 179.824219 193.15625 179.664062 C 194.128906 179.253906 194.535156 178.613281 194.695312 178.242188 C 194.757812 178.265625 194.820312 178.289062 194.886719 178.300781 C 194.828125 178.777344 194.644531 179.453125 194.183594 179.695312 Z M 192.234375 179.160156 C 189.261719 177.097656 193.996094 175.4375 194.367188 177.226562 C 194.316406 177.277344 194.261719 177.324219 194.210938 177.367188 C 194.203125 177.550781 194.238281 177.726562 194.324219 177.894531 C 194.089844 178.660156 193.289062 179.164062 192.570312 179.378906 C 192.464844 179.3125 192.351562 179.238281 192.234375 179.160156 Z M 184.640625 186.925781 C 181.929688 188.269531 180.285156 190.539062 177.953125 192.378906 C 176.960938 193.160156 174.148438 195.074219 175.167969 192.335938 C 178.0625 191.011719 179.859375 188.351562 182.171875 186.351562 C 184.621094 184.230469 186.832031 180.664062 190.269531 180.113281 C 192.191406 183.582031 187.03125 185.742188 184.640625 186.925781 Z M 179.964844 187.730469 C 178.6875 189.296875 177.253906 190.777344 175.433594 191.703125 C 176.269531 189.832031 178.289062 188.707031 179.964844 187.730469 Z M 162.042969 194.210938 C 164.816406 192.632812 167.878906 191.597656 170.6875 189.996094 C 173.335938 188.488281 176.117188 186.878906 179.097656 186.128906 C 179.855469 185.9375 181.042969 185.378906 180.796875 186.484375 C 180.605469 187.335938 178.136719 188.253906 177.46875 188.75 C 176.304688 189.628906 175.339844 190.628906 174.792969 192.007812 C 171.375 193.535156 166.5625 194.191406 162.042969 194.210938 Z M 161.085938 194.203125 C 155.90625 194.121094 148.570312 193.554688 146.34375 187.898438 C 150.0625 192.082031 156.382812 194.671875 161.945312 193.722656 C 161.664062 193.882812 161.378906 194.046875 161.085938 194.203125 Z M 145.167969 181.59375 C 143.851562 169.609375 155.835938 164.101562 165.808594 168.339844 C 169.519531 174.476562 174.449219 178.976562 180.230469 183.085938 C 176.703125 184.265625 173.535156 185.566406 170.492188 187.753906 C 167.53125 189.886719 164.625 193.007812 160.867188 193.375 C 157.085938 193.746094 153.234375 192.449219 150.058594 190.4375 C 148.828125 189.65625 147.386719 188.660156 146.527344 187.453125 C 145.371094 185.820312 145.382812 183.5625 145.167969 181.59375 Z M 161.6875 165.054688 C 161.894531 165.140625 163.941406 166.226562 163.707031 166.3125 C 163.136719 166.488281 161.929688 165.28125 161.6875 165.054688 Z M 143.144531 177.707031 C 143.144531 171.472656 146.324219 166.695312 152.472656 165.101562 C 154.1875 164.65625 155.984375 164.316406 157.761719 164.332031 C 158.550781 164.339844 159.910156 164.34375 160.664062 164.703125 C 161.492188 165.09375 161.933594 166.347656 162.910156 166.566406 C 164.3125 166.878906 164.390625 166.160156 163.363281 165.273438 C 162.714844 164.714844 161.605469 164.761719 160.917969 164.292969 C 160.394531 163.9375 159.777344 163.042969 159.390625 162.566406 C 156.597656 159.136719 157.730469 156.863281 160.941406 154.324219 C 163.894531 151.992188 167.15625 150.039062 169.542969 147.0625 C 171.992188 144.007812 172.851562 140.246094 174.140625 136.640625 C 174.664062 135.175781 174.796875 134.277344 176.328125 134.496094 C 177.574219 134.671875 179.339844 136.75 180.1875 137.625 C 177.890625 140.546875 176.011719 143.910156 173.375 146.542969 C 171.167969 148.742188 168.160156 149.851562 165.964844 152.125 C 161.269531 156.988281 162.261719 162.242188 165.414062 167.671875 C 159.710938 165.40625 153.304688 165.59375 148.707031 170.039062 C 144.1875 174.402344 144.117188 179.941406 145.253906 185.722656 C 143.851562 183.457031 143.144531 180.78125 143.144531 177.707031 Z M 180.511719 137.972656 C 186.878906 144.878906 188.019531 155.144531 188.199219 164.128906 C 188.308594 169.703125 188.996094 179.691406 182.585938 182.261719 C 178.808594 176.152344 172.707031 170.816406 166.128906 167.972656 C 162.847656 162.496094 161.585938 157.195312 166.472656 152.273438 C 168.621094 150.105469 171.53125 149.03125 173.671875 146.90625 C 176.328125 144.273438 178.214844 140.902344 180.511719 137.972656 Z M 182.386719 182.839844 C 182.925781 183.75 183 184.074219 182.996094 184.183594 C 182.746094 184.191406 182.101562 183.804688 181.265625 183.234375 C 181.675781 183.097656 182.046875 182.96875 182.386719 182.839844 Z M 180.78125 182.902344 C 175.125 178.9375 170.265625 174.589844 166.558594 168.675781 C 172.765625 171.539062 178.519531 176.609375 182.140625 182.429688 C 181.742188 182.578125 181.296875 182.730469 180.78125 182.902344 Z M 186.644531 133.453125 C 190.867188 133.789062 192.691406 141.8125 193.5 145.042969 C 194.617188 149.527344 195.011719 154.203125 194.820312 158.820312 C 194.613281 163.773438 193.816406 168.871094 191.660156 173.375 C 190.835938 175.097656 188.722656 177.757812 190 179.683594 C 186.175781 180.449219 184.402344 184.351562 181.375 186.335938 C 181.914062 184.332031 177.570312 186.144531 177.121094 186.3125 C 172.855469 187.925781 169.210938 190.753906 164.972656 192.382812 C 167.84375 190.4375 170.464844 188.09375 173.457031 186.332031 C 175.714844 185.003906 178.238281 184.25 180.707031 183.421875 C 182.214844 184.46875 184.40625 185.367188 182.832031 182.667969 C 189.855469 179.804688 188.851562 168.476562 188.613281 162.414062 C 188.273438 153.792969 186.921875 144.183594 180.808594 137.597656 C 182.777344 135.144531 184.75 133.300781 186.644531 133.453125 Z M 226.734375 153.757812 C 219.125 154.925781 212.394531 158.695312 207.132812 164.273438 C 204.757812 166.789062 202.832031 168.933594 201.238281 172.066406 C 200.554688 173.40625 196.703125 179.132812 194.832031 177.777344 C 194.851562 177.65625 194.859375 177.535156 194.855469 177.414062 C 198.003906 174.460938 199.738281 171.660156 200.285156 167.363281 C 200.328125 167.03125 201.027344 162.292969 202.214844 163.828125 C 202.875 164.683594 201.953125 165.808594 201.015625 165.421875 C 200.582031 166.722656 204.972656 164.652344 202.273438 163.304688 C 200.308594 162.320312 199.960938 166.203125 199.820312 167.320312 C 199.292969 171.414062 197.703125 174.015625 194.746094 176.867188 C 193.828125 174.632812 188.410156 177.03125 191.929688 179.519531 C 191.457031 179.558594 190.984375 179.589844 190.511719 179.605469 C 189.074219 177.359375 191.96875 174.046875 192.796875 171.996094 C 194.984375 166.597656 195.515625 160.378906 195.289062 154.605469 C 195.066406 148.832031 193.925781 142.984375 191.402344 137.757812 C 190.507812 135.90625 189.234375 133.429688 186.984375 133.039062 C 184.285156 132.570312 181.96875 135.414062 180.484375 137.257812 C 178.714844 135.4375 175.886719 132.179688 174.125 135.335938 C 172.058594 139.035156 171.933594 143.339844 169.160156 146.789062 C 166.613281 149.953125 163.0625 151.890625 160.003906 154.472656 C 156.152344 157.722656 156.886719 160.566406 160.09375 164.09375 C 151.46875 162.382812 143.195312 167.8125 142.707031 176.679688 C 142.453125 181.210938 144.253906 185.980469 146.753906 189.691406 C 149.636719 193.960938 155.605469 194.480469 160.273438 194.628906 C 155.351562 197.140625 149.097656 199.292969 143.492188 198.621094 C 139.515625 198.144531 136.367188 194.851562 132.371094 194.851562 L 132.371094 195.320312 C 135.628906 195.320312 138.117188 197.710938 141.121094 198.621094 C 144.621094 199.679688 148.378906 199.121094 151.851562 198.242188 C 155.4375 197.332031 159.277344 194.71875 162.863281 194.640625 C 166.804688 194.550781 170.917969 194.097656 174.589844 192.585938 C 173.582031 195.933594 177.773438 193.15625 178.648438 192.410156 C 180.503906 190.820312 181.960938 188.902344 184.132812 187.703125 C 186.800781 186.234375 192.800781 184.152344 190.773438 180.058594 C 191.359375 180.035156 191.933594 180.023438 192.507812 179.878906 C 194.007812 180.699219 195.183594 179.875 195.359375 178.300781 C 200.449219 177.433594 201.390625 171.035156 204.257812 167.867188 C 203.746094 169.34375 205.550781 170.648438 206.484375 169.3125 C 207.003906 168.574219 206.65625 166.886719 205.671875 166.652344 C 211.03125 160.070312 218.378906 155.515625 226.804688 154.222656 L 226.734375 153.757812 " fill-opacity="1" fill-rule="nonzero"/></g><g fill="#000000" fill-opacity="1"><g transform="translate(41.918011, 198.056587)"><g><path d="M 20.1875 -24.4375 C 19.5625 -23.4375 19.1875 -22.347656 19.0625 -21.171875 C 18.90625 -19.367188 19.53125 -17.90625 20.9375 -16.78125 C 21.90625 -16.03125 22.976562 -15.457031 24.15625 -15.0625 C 26.425781 -14.257812 28.75 -13.722656 31.125 -13.453125 C 33 -13.203125 34.882812 -13.015625 36.78125 -12.890625 C 37.382812 -12.859375 37.988281 -12.832031 38.59375 -12.8125 C 40.632812 -12.8125 42.671875 -13.148438 44.703125 -13.828125 C 46.972656 -14.597656 49.3125 -15.070312 51.71875 -15.25 C 51.738281 -15.25 51.75 -15.25 51.75 -15.25 C 52.101562 -15.269531 52.453125 -15.28125 52.796875 -15.28125 C 53.023438 -15.28125 53.238281 -15.269531 53.4375 -15.25 C 53.757812 -15.21875 54.03125 -15.117188 54.25 -14.953125 C 54.476562 -14.796875 54.59375 -14.628906 54.59375 -14.453125 C 54.59375 -14.203125 54.519531 -14.003906 54.375 -13.859375 C 54.226562 -13.710938 54.050781 -13.597656 53.84375 -13.515625 C 53.300781 -13.242188 52.753906 -13.046875 52.203125 -12.921875 C 50.773438 -12.597656 49.347656 -12.320312 47.921875 -12.09375 C 46.847656 -11.894531 45.773438 -11.769531 44.703125 -11.71875 C 43.773438 -11.71875 42.875 -11.601562 42 -11.375 C 41.125 -11.15625 40.257812 -10.894531 39.40625 -10.59375 C 35.113281 -9.125 30.890625 -7.484375 26.734375 -5.671875 C 22.585938 -3.859375 18.550781 -1.785156 14.625 0.546875 C 13.144531 1.390625 11.707031 2.289062 10.3125 3.25 C 8.914062 4.21875 7.582031 5.265625 6.3125 6.390625 C 5.75 6.890625 5.234375 7.398438 4.765625 7.921875 C 4.421875 8.296875 4.125 8.710938 3.875 9.171875 C 3.34375 10.066406 3.203125 10.832031 3.453125 11.46875 C 3.703125 12.101562 4.328125 12.535156 5.328125 12.765625 C 6.171875 12.929688 7.03125 13.03125 7.90625 13.0625 C 8.113281 13.0625 8.332031 13.046875 8.5625 13.015625 C 10.476562 12.867188 12.378906 12.609375 14.265625 12.234375 C 16.148438 11.859375 18.019531 11.421875 19.875 10.921875 C 25.050781 9.472656 30.148438 7.828125 35.171875 5.984375 C 35.992188 5.648438 36.757812 5.222656 37.46875 4.703125 C 42.757812 1.117188 48.359375 -1.921875 54.265625 -4.421875 C 56.734375 -5.441406 59.269531 -6.300781 61.875 -7 C 62.96875 -7.34375 64.09375 -7.515625 65.25 -7.515625 C 65.425781 -7.546875 65.585938 -7.546875 65.734375 -7.515625 C 66.160156 -7.515625 66.585938 -7.441406 67.015625 -7.296875 C 67.304688 -7.171875 67.378906 -6.945312 67.234375 -6.625 C 67.003906 -6.25 66.679688 -5.972656 66.265625 -5.796875 C 62.460938 -3.921875 58.628906 -2.097656 54.765625 -0.328125 C 50.898438 1.441406 46.992188 3.109375 43.046875 4.671875 C 42.523438 4.859375 42 5.066406 41.46875 5.296875 C 40.320312 5.753906 39.160156 6.191406 37.984375 6.609375 C 37.234375 6.878906 36.535156 7.253906 35.890625 7.734375 C 33.816406 9.210938 31.796875 10.75 29.828125 12.34375 C 27.867188 13.945312 25.988281 15.660156 24.1875 17.484375 C 24.164062 17.503906 24.128906 17.546875 24.078125 17.609375 C 23.953125 17.753906 23.8125 17.875 23.65625 17.96875 C 23.507812 18.070312 23.335938 18.109375 23.140625 18.078125 C 23.085938 18.078125 23.039062 18.078125 23 18.078125 C 22.894531 18.109375 22.789062 18.109375 22.6875 18.078125 C 22.582031 18.078125 22.472656 18.0625 22.359375 18.03125 C 22.253906 18 22.175781 17.953125 22.125 17.890625 C 22.082031 17.828125 22.0625 17.734375 22.0625 17.609375 C 22.0625 17.484375 22.070312 17.378906 22.09375 17.296875 C 22.289062 16.972656 22.515625 16.6875 22.765625 16.4375 C 25.210938 14.0625 27.800781 11.835938 30.53125 9.765625 C 30.625 9.679688 30.75 9.628906 30.90625 9.609375 C 30.945312 9.585938 30.992188 9.578125 31.046875 9.578125 C 30.847656 9.453125 30.660156 9.378906 30.484375 9.359375 C 30.234375 9.378906 29.984375 9.441406 29.734375 9.546875 C 29.710938 9.546875 29.675781 9.554688 29.625 9.578125 C 29.175781 9.703125 28.738281 9.835938 28.3125 9.984375 C 26.457031 10.585938 24.609375 11.148438 22.765625 11.671875 C 21.765625 11.941406 20.378906 12.285156 18.609375 12.703125 C 16.847656 13.117188 14.9375 13.488281 12.875 13.8125 C 10.8125 14.132812 8.859375 14.296875 7.015625 14.296875 C 5.171875 14.296875 3.65625 14.023438 2.46875 13.484375 C 0.820312 12.578125 0.320312 11.234375 0.96875 9.453125 C 1.300781 8.660156 1.78125 7.941406 2.40625 7.296875 C 3.445312 6.085938 4.625 5.007812 5.9375 4.0625 C 7.851562 2.59375 9.851562 1.234375 11.9375 -0.015625 C 14.03125 -1.265625 16.164062 -2.441406 18.34375 -3.546875 C 23.632812 -6.273438 29.082031 -8.640625 34.6875 -10.640625 C 35.164062 -10.785156 35.628906 -10.957031 36.078125 -11.15625 C 36.078125 -11.15625 36.085938 -11.171875 36.109375 -11.203125 C 36.140625 -11.203125 36.164062 -11.238281 36.1875 -11.3125 C 36.207031 -11.363281 36.234375 -11.410156 36.265625 -11.453125 C 35.734375 -11.609375 35.207031 -11.6875 34.6875 -11.6875 C 34.457031 -11.6875 34.21875 -11.695312 33.96875 -11.71875 C 33.519531 -11.769531 33.0625 -11.820312 32.59375 -11.875 C 32.257812 -11.925781 31.929688 -11.960938 31.609375 -11.984375 C 28.710938 -12.285156 25.875 -12.859375 23.09375 -13.703125 C 21.695312 -14.109375 20.398438 -14.722656 19.203125 -15.546875 C 16.578125 -17.441406 15.789062 -19.929688 16.84375 -23.015625 C 17.382812 -24.535156 18.195312 -25.894531 19.28125 -27.09375 C 20.632812 -28.644531 22.109375 -30.046875 23.703125 -31.296875 C 29.328125 -35.742188 35.296875 -39.484375 41.609375 -42.515625 C 47.921875 -45.554688 54.597656 -47.828125 61.640625 -49.328125 C 65.046875 -50.023438 68.484375 -50.375 71.953125 -50.375 C 72.203125 -50.375 72.441406 -50.375 72.671875 -50.375 C 74.597656 -50.351562 76.46875 -50.109375 78.28125 -49.640625 C 80.09375 -49.179688 81.859375 -48.550781 83.578125 -47.75 C 84.453125 -47.375 85.226562 -46.851562 85.90625 -46.1875 C 86.3125 -45.832031 86.5625 -45.394531 86.65625 -44.875 C 86.6875 -44.695312 86.640625 -44.535156 86.515625 -44.390625 C 86.390625 -44.253906 86.238281 -44.1875 86.0625 -44.1875 C 85.957031 -44.1875 85.859375 -44.1875 85.765625 -44.1875 C 85.710938 -44.1875 85.660156 -44.1875 85.609375 -44.1875 C 85.210938 -44.164062 84.890625 -44.289062 84.640625 -44.5625 C 83.929688 -45.414062 83.113281 -46.070312 82.1875 -46.53125 C 81.269531 -47 80.3125 -47.40625 79.3125 -47.75 C 79.238281 -47.78125 79.160156 -47.804688 79.078125 -47.828125 C 76.554688 -48.734375 74.007812 -49.171875 71.4375 -49.140625 C 70.0625 -49.140625 68.6875 -49.039062 67.3125 -48.84375 C 62.082031 -48.144531 57.039062 -46.914062 52.1875 -45.15625 C 47.34375 -43.394531 42.644531 -41.238281 38.09375 -38.6875 C 35.519531 -37.257812 33.023438 -35.710938 30.609375 -34.046875 C 28.203125 -32.390625 25.898438 -30.5625 23.703125 -28.5625 C 22.328125 -27.363281 21.15625 -25.988281 20.1875 -24.4375 Z M 61.765625 -5.6875 L 61.875 -5.640625 Z M 46.203125 1.296875 C 45.628906 1.585938 45.660156 1.617188 46.296875 1.390625 C 46.929688 1.171875 47.90625 0.789062 49.21875 0.25 C 50.53125 -0.28125 51.941406 -0.863281 53.453125 -1.5 C 54.960938 -2.132812 56.304688 -2.703125 57.484375 -3.203125 C 58.660156 -3.703125 59.410156 -4.046875 59.734375 -4.234375 C 60.210938 -4.453125 60.675781 -4.6875 61.125 -4.9375 C 61.175781 -4.96875 61.222656 -4.992188 61.265625 -5.015625 C 61.367188 -5.054688 61.429688 -5.125 61.453125 -5.21875 C 61.484375 -5.3125 61.5 -5.390625 61.5 -5.453125 C 61.320312 -5.390625 61.144531 -5.328125 60.96875 -5.265625 C 60.875 -5.265625 60.789062 -5.253906 60.71875 -5.234375 C 57.363281 -4.128906 54.113281 -2.796875 50.96875 -1.234375 C 49.757812 -0.628906 48.570312 -0.00390625 47.40625 0.640625 C 47 0.867188 46.597656 1.085938 46.203125 1.296875 Z M 31.046875 9.546875 C 31.046875 9.546875 31.0625 9.546875 31.09375 9.546875 C 31.09375 9.546875 31.078125 9.546875 31.046875 9.546875 Z M 31.046875 9.453125 C 31.097656 9.484375 31.128906 9.5 31.140625 9.5 C 31.148438 9.5 31.15625 9.488281 31.15625 9.46875 C 31.15625 9.457031 31.148438 9.445312 31.140625 9.4375 C 31.128906 9.425781 31.117188 9.425781 31.109375 9.4375 C 31.097656 9.445312 31.078125 9.453125 31.046875 9.453125 Z M 31.046875 9.453125 "/></g></g></g><g fill="#000000" fill-opacity="1"><g transform="translate(109.04046, 198.056587)"><g><path d="M 17.8125 -8.546875 C 18.207031 -8.785156 18.519531 -8.84375 18.75 -8.71875 C 18.976562 -8.601562 18.894531 -8.253906 18.5 -7.671875 C 18 -7.003906 17.101562 -6.285156 15.8125 -5.515625 C 14.519531 -4.753906 13.378906 -4.421875 12.390625 -4.515625 C 11.398438 -4.617188 11.113281 -5.351562 11.53125 -6.71875 C 11.945312 -8.082031 12.171875 -8.84375 12.203125 -9 C 12.234375 -9.164062 12.203125 -9.257812 12.109375 -9.28125 C 12.015625 -9.3125 11.789062 -9.203125 11.4375 -8.953125 C 10.414062 -8.242188 9.414062 -7.503906 8.4375 -6.734375 C 8.019531 -6.410156 7.601562 -6.078125 7.1875 -5.734375 C 6.9375 -5.503906 6.675781 -5.273438 6.40625 -5.046875 C 6.40625 -5.046875 6.394531 -5.035156 6.375 -5.015625 C 6.082031 -4.710938 5.71875 -4.515625 5.28125 -4.421875 C 5.09375 -4.359375 4.890625 -4.332031 4.671875 -4.34375 C 4.453125 -4.363281 4.269531 -4.453125 4.125 -4.609375 C 3.957031 -4.773438 3.894531 -4.953125 3.9375 -5.140625 C 3.976562 -5.328125 4.117188 -5.609375 4.359375 -5.984375 C 4.597656 -6.359375 4.863281 -6.769531 5.15625 -7.21875 C 5.445312 -7.664062 5.609375 -7.941406 5.640625 -8.046875 C 5.671875 -8.148438 5.65625 -8.253906 5.59375 -8.359375 C 5.507812 -8.453125 5.421875 -8.476562 5.328125 -8.4375 C 5.234375 -8.40625 4.875 -8.164062 4.25 -7.71875 C 3.625 -7.269531 2.769531 -6.640625 1.6875 -5.828125 C 1.1875 -5.453125 0.695312 -5.066406 0.21875 -4.671875 C 0.09375 -4.546875 -0.0390625 -4.429688 -0.1875 -4.328125 C -0.539062 -4.035156 -0.925781 -3.878906 -1.34375 -3.859375 C -1.65625 -3.828125 -1.882812 -3.890625 -2.03125 -4.046875 C -2.175781 -4.210938 -2.195312 -4.429688 -2.09375 -4.703125 C -2.03125 -4.910156 -1.945312 -5.097656 -1.84375 -5.265625 C -1.78125 -5.347656 -1.738281 -5.425781 -1.71875 -5.5 C -0.820312 -7.320312 0.0625 -9.144531 0.9375 -10.96875 C 0.957031 -11.019531 0.976562 -11.082031 1 -11.15625 C 1.101562 -11.351562 1.207031 -11.539062 1.3125 -11.71875 C 1.582031 -12.019531 1.90625 -12.117188 2.28125 -12.015625 C 2.71875 -11.890625 2.882812 -11.640625 2.78125 -11.265625 C 2.570312 -10.691406 2.375 -10.128906 2.1875 -9.578125 C 2.082031 -9.328125 1.976562 -9.078125 1.875 -8.828125 C 1.707031 -8.390625 1.65625 -8.109375 1.71875 -7.984375 C 1.78125 -7.859375 2.0625 -7.941406 2.5625 -8.234375 C 2.894531 -8.460938 3.226562 -8.6875 3.5625 -8.90625 C 3.957031 -9.1875 4.34375 -9.4375 4.71875 -9.65625 C 5.300781 -10.007812 5.894531 -10.3125 6.5 -10.5625 C 6.789062 -10.6875 7.09375 -10.78125 7.40625 -10.84375 C 7.71875 -10.90625 8.007812 -10.835938 8.28125 -10.640625 C 8.488281 -10.460938 8.578125 -10.265625 8.546875 -10.046875 C 8.515625 -9.835938 8.457031 -9.632812 8.375 -9.4375 C 8.207031 -9.0625 8.140625 -8.820312 8.171875 -8.71875 C 8.203125 -8.625 8.289062 -8.609375 8.4375 -8.671875 C 8.582031 -8.734375 8.84375 -8.875 9.21875 -9.09375 C 9.59375 -9.320312 10 -9.570312 10.4375 -9.84375 C 10.976562 -10.195312 11.550781 -10.535156 12.15625 -10.859375 C 12.65625 -11.179688 13.1875 -11.378906 13.75 -11.453125 C 14.539062 -11.503906 14.863281 -11.1875 14.71875 -10.5 C 14.570312 -9.8125 14.296875 -8.992188 13.890625 -8.046875 C 13.484375 -7.097656 13.441406 -6.515625 13.765625 -6.296875 C 14.085938 -6.085938 14.804688 -6.382812 15.921875 -7.1875 C 17.035156 -7.988281 17.664062 -8.441406 17.8125 -8.546875 Z M 17.8125 -8.546875 "/></g></g></g><g fill="#000000" fill-opacity="1"><g transform="translate(126.370966, 198.056587)"><g><path d="M 6.765625 -7.1875 C 6.160156 -6.46875 5.441406 -5.804688 4.609375 -5.203125 C 3.785156 -4.597656 2.847656 -4.191406 1.796875 -3.984375 C 0.753906 -3.773438 -0.0507812 -3.847656 -0.625 -4.203125 C -1.207031 -4.566406 -1.320312 -5.375 -0.96875 -6.625 C -0.519531 -7.925781 0.101562 -9.160156 0.90625 -10.328125 C 1.082031 -10.578125 1.34375 -10.753906 1.6875 -10.859375 C 1.9375 -10.910156 2.15625 -10.863281 2.34375 -10.71875 C 2.53125 -10.582031 2.601562 -10.40625 2.5625 -10.1875 C 2.382812 -9.78125 2.191406 -9.375 1.984375 -8.96875 C 1.785156 -8.5625 1.648438 -8.296875 1.578125 -8.171875 C 1.179688 -7.441406 0.90625 -6.675781 0.75 -5.875 C 0.75 -5.425781 1.351562 -5.398438 2.5625 -5.796875 C 3.78125 -6.191406 4.960938 -6.921875 6.109375 -7.984375 C 7.265625 -9.046875 7.816406 -9.359375 7.765625 -8.921875 C 7.710938 -8.484375 7.378906 -7.90625 6.765625 -7.1875 Z M 3.796875 -12.890625 C 3.742188 -12.835938 3.628906 -12.78125 3.453125 -12.71875 C 3.273438 -12.65625 3.085938 -12.609375 2.890625 -12.578125 C 2.691406 -12.554688 2.535156 -12.585938 2.421875 -12.671875 C 2.304688 -12.765625 2.300781 -12.945312 2.40625 -13.21875 C 2.582031 -13.695312 2.769531 -14.113281 2.96875 -14.46875 C 3.164062 -14.832031 3.425781 -15.226562 3.75 -15.65625 C 3.957031 -15.851562 4.175781 -15.957031 4.40625 -15.96875 C 4.644531 -15.988281 4.84375 -15.925781 5 -15.78125 C 5.164062 -15.644531 5.210938 -15.453125 5.140625 -15.203125 C 4.890625 -14.304688 4.441406 -13.535156 3.796875 -12.890625 Z M 3.796875 -12.890625 "/></g></g></g><g fill="#000000" fill-opacity="1"><g transform="translate(132.318503, 198.056587)"><g><path d="M 8.171875 -10.453125 C 8.078125 -9.671875 7.710938 -9.160156 7.078125 -8.921875 C 6.441406 -8.691406 6.234375 -9.003906 6.453125 -9.859375 C 6.671875 -10.722656 6.28125 -10.941406 5.28125 -10.515625 C 4.28125 -10.097656 3.457031 -9.5625 2.8125 -8.90625 C 1.8125 -7.882812 0.925781 -6.785156 0.15625 -5.609375 C 0.0703125 -5.503906 0.0078125 -5.421875 -0.03125 -5.359375 C -0.257812 -5.023438 -0.488281 -4.710938 -0.71875 -4.421875 C -0.863281 -4.210938 -1.035156 -4.082031 -1.234375 -4.03125 C -1.429688 -3.976562 -1.632812 -3.96875 -1.84375 -4 C -2.03125 -4.03125 -2.175781 -4.109375 -2.28125 -4.234375 C -2.382812 -4.359375 -2.394531 -4.503906 -2.3125 -4.671875 C -2.1875 -4.972656 -2.039062 -5.285156 -1.875 -5.609375 C -0.851562 -7.503906 0.1875 -9.40625 1.25 -11.3125 C 1.269531 -11.332031 1.28125 -11.359375 1.28125 -11.390625 C 1.425781 -11.679688 1.601562 -11.953125 1.8125 -12.203125 C 2.03125 -12.453125 2.285156 -12.550781 2.578125 -12.5 C 2.878906 -12.457031 3.082031 -12.285156 3.1875 -11.984375 C 3.3125 -11.585938 3.414062 -11.363281 3.5 -11.3125 C 3.59375 -11.257812 3.800781 -11.296875 4.125 -11.421875 C 4.800781 -11.671875 5.460938 -11.84375 6.109375 -11.9375 C 6.765625 -12.039062 7.296875 -12.015625 7.703125 -11.859375 C 8.117188 -11.710938 8.273438 -11.242188 8.171875 -10.453125 Z M 8.171875 -10.453125 "/></g></g></g><g fill="#000000" fill-opacity="1"><g transform="translate(140.14048, 198.056587)"><g><path d="M 12.359375 -8.671875 C 12.628906 -8.523438 12.648438 -8.15625 12.421875 -7.5625 C 12.097656 -7.132812 11.75 -6.734375 11.375 -6.359375 C 11 -5.984375 10.585938 -5.648438 10.140625 -5.359375 C 10.109375 -5.359375 10.09375 -5.34375 10.09375 -5.3125 C 9.789062 -5.113281 9.476562 -4.941406 9.15625 -4.796875 C 6.4375 -3.816406 5.050781 -4.390625 5 -6.515625 C 3.894531 -5.554688 3.15625 -4.96875 2.78125 -4.75 C 1.882812 -4.21875 0.910156 -3.984375 -0.140625 -4.046875 C -0.910156 -4.085938 -1.429688 -4.320312 -1.703125 -4.75 C -1.984375 -5.175781 -1.960938 -5.753906 -1.640625 -6.484375 C -1.140625 -7.628906 -0.425781 -8.648438 0.5 -9.546875 C 1.570312 -10.546875 2.769531 -11.347656 4.09375 -11.953125 C 4.789062 -12.296875 5.53125 -12.429688 6.3125 -12.359375 C 7.082031 -12.304688 7.546875 -11.867188 7.703125 -11.046875 C 7.773438 -10.796875 7.710938 -10.570312 7.515625 -10.375 C 7.265625 -10.144531 6.972656 -10.09375 6.640625 -10.21875 C 6.617188 -10.21875 6.585938 -10.222656 6.546875 -10.234375 C 6.515625 -10.253906 6.484375 -10.273438 6.453125 -10.296875 C 6.128906 -10.742188 5.796875 -10.929688 5.453125 -10.859375 C 5.117188 -10.785156 4.765625 -10.632812 4.390625 -10.40625 C 2.640625 -9.382812 1.34375 -7.960938 0.5 -6.140625 C 0.445312 -6.054688 0.414062 -5.96875 0.40625 -5.875 C 0.394531 -5.78125 0.425781 -5.703125 0.5 -5.640625 C 0.695312 -5.578125 0.921875 -5.59375 1.171875 -5.6875 C 1.421875 -5.78125 1.671875 -5.921875 1.921875 -6.109375 C 2.171875 -6.296875 2.382812 -6.453125 2.5625 -6.578125 C 2.582031 -6.609375 2.59375 -6.625 2.59375 -6.625 C 3.414062 -7.320312 4.226562 -8.035156 5.03125 -8.765625 C 5.382812 -9.140625 5.820312 -9.347656 6.34375 -9.390625 C 7.09375 -9.390625 7.40625 -9.054688 7.28125 -8.390625 C 7.207031 -8.140625 7.132812 -7.890625 7.0625 -7.640625 C 6.757812 -6.554688 6.742188 -5.921875 7.015625 -5.734375 C 7.296875 -5.546875 7.71875 -5.546875 8.28125 -5.734375 C 8.84375 -5.921875 9.40625 -6.28125 9.96875 -6.8125 C 10.53125 -7.34375 11.003906 -7.820312 11.390625 -8.25 C 11.773438 -8.6875 12.097656 -8.828125 12.359375 -8.671875 Z M 12.359375 -8.671875 "/></g></g></g><g fill="#000000" fill-opacity="1"><g transform="translate(150.747139, 198.056587)"><g/></g></g><g fill="#000000" fill-opacity="1"><g transform="translate(162.931453, 198.056587)"><g/></g></g><g fill="#000000" fill-opacity="1"><g transform="translate(175.115767, 198.056587)"><g/></g></g><g fill="#000000" fill-opacity="1"><g transform="translate(187.301038, 198.056587)"><g><path d="M 9.71875 -6.546875 C 9.0625 -5.898438 8.296875 -5.34375 7.421875 -4.875 C 6.546875 -4.414062 5.8125 -4.113281 5.21875 -3.96875 C 4.625 -3.832031 4.015625 -3.753906 3.390625 -3.734375 C 2.390625 -3.691406 1.46875 -3.828125 0.625 -4.140625 C -0.75 -4.703125 -1.222656 -5.765625 -0.796875 -7.328125 C -0.398438 -8.679688 0.398438 -9.738281 1.609375 -10.5 C 2.828125 -11.257812 4.085938 -11.628906 5.390625 -11.609375 C 5.390625 -11.609375 5.398438 -11.609375 5.421875 -11.609375 C 5.753906 -11.628906 6.066406 -11.601562 6.359375 -11.53125 C 6.859375 -11.351562 7.175781 -11.054688 7.3125 -10.640625 C 7.445312 -10.234375 7.359375 -9.78125 7.046875 -9.28125 C 6.316406 -8.1875 5.328125 -7.578125 4.078125 -7.453125 C 3.242188 -7.367188 2.441406 -7.40625 1.671875 -7.5625 C 1.523438 -7.59375 1.394531 -7.554688 1.28125 -7.453125 C 1.164062 -7.347656 1.097656 -7.222656 1.078125 -7.078125 C 0.847656 -6.097656 1.148438 -5.472656 1.984375 -5.203125 C 3.003906 -4.847656 4.066406 -4.847656 5.171875 -5.203125 C 6.441406 -5.597656 7.648438 -6.34375 8.796875 -7.4375 C 9.941406 -8.539062 10.601562 -9.054688 10.78125 -8.984375 C 10.957031 -8.910156 11.007812 -8.703125 10.9375 -8.359375 C 10.78125 -7.796875 10.375 -7.191406 9.71875 -6.546875 Z M 2.453125 -9.28125 C 2.390625 -9.207031 2.34375 -9.117188 2.3125 -9.015625 C 2.28125 -8.921875 2.316406 -8.835938 2.421875 -8.765625 C 2.816406 -8.535156 3.25 -8.453125 3.71875 -8.515625 C 4.1875 -8.578125 4.582031 -8.75 4.90625 -9.03125 C 5.226562 -9.320312 5.363281 -9.679688 5.3125 -10.109375 C 5.28125 -10.253906 5.203125 -10.347656 5.078125 -10.390625 C 4.953125 -10.429688 4.828125 -10.4375 4.703125 -10.40625 C 3.859375 -10.257812 3.109375 -9.882812 2.453125 -9.28125 Z M 2.453125 -9.28125 "/></g></g></g><g fill="#000000" fill-opacity="1"><g transform="translate(196.520329, 198.056587)"><g><path d="M 13.5 -8.5 C 13.675781 -8.28125 13.445312 -7.867188 12.8125 -7.265625 C 12.175781 -6.660156 11.5 -6.148438 10.78125 -5.734375 C 10.070312 -5.328125 9.242188 -4.921875 8.296875 -4.515625 C 7.671875 -4.242188 7.003906 -4.148438 6.296875 -4.234375 C 5.597656 -4.328125 5.25 -4.753906 5.25 -5.515625 C 5.25 -6.285156 5.425781 -7.046875 5.78125 -7.796875 C 6.132812 -8.566406 6.207031 -8.960938 6 -8.984375 C 5.800781 -9.003906 5.390625 -8.816406 4.765625 -8.421875 C 3.140625 -7.347656 1.628906 -6.125 0.234375 -4.75 C -0.140625 -4.300781 -0.613281 -4.050781 -1.1875 -4 C -1.488281 -4 -1.71875 -4.09375 -1.875 -4.28125 C -2.039062 -4.46875 -2.0625 -4.671875 -1.9375 -4.890625 C -0.9375 -6.742188 0.0703125 -8.570312 1.09375 -10.375 C 1.320312 -10.75 1.660156 -10.984375 2.109375 -11.078125 C 2.304688 -11.109375 2.484375 -11.046875 2.640625 -10.890625 C 2.804688 -10.742188 2.890625 -10.570312 2.890625 -10.375 C 2.867188 -10.195312 2.796875 -9.984375 2.671875 -9.734375 C 2.617188 -9.585938 2.566406 -9.441406 2.515625 -9.296875 C 2.460938 -9.160156 2.441406 -9.046875 2.453125 -8.953125 C 2.472656 -8.867188 2.546875 -8.84375 2.671875 -8.875 C 2.847656 -8.96875 3.019531 -9.066406 3.1875 -9.171875 C 3.613281 -9.421875 4.03125 -9.660156 4.4375 -9.890625 C 4.78125 -10.085938 5.144531 -10.265625 5.53125 -10.421875 C 5.925781 -10.585938 6.332031 -10.695312 6.75 -10.75 C 7.425781 -10.800781 7.90625 -10.648438 8.1875 -10.296875 C 8.476562 -9.941406 8.515625 -9.453125 8.296875 -8.828125 C 8.066406 -8.265625 7.828125 -7.703125 7.578125 -7.140625 C 7.273438 -6.617188 7.222656 -6.222656 7.421875 -5.953125 C 7.628906 -5.679688 8.582031 -5.992188 10.28125 -6.890625 L 11.5625 -7.640625 C 12.757812 -8.410156 13.40625 -8.695312 13.5 -8.5 Z M 13.5 -8.5 "/></g></g></g><g fill="#000000" fill-opacity="1"><g transform="translate(208.31272, 198.056587)"><g/></g></g><g fill="#000000" fill-opacity="1"><g transform="translate(220.497033, 198.056587)"><g><path d="M 92.125 -15.578125 C 89.957031 -15.828125 87.769531 -15.953125 85.5625 -15.953125 C 84.59375 -15.984375 83.609375 -16.007812 82.609375 -16.03125 C 73.503906 -16.40625 64.378906 -16.503906 55.234375 -16.328125 C 54.785156 -16.328125 54.410156 -16.328125 54.109375 -16.328125 C 53.609375 -16.359375 53.242188 -16.351562 53.015625 -16.3125 C 52.796875 -16.28125 52.617188 -16.15625 52.484375 -15.9375 C 52.347656 -15.726562 52.1875 -15.382812 52 -14.90625 C 51.875 -14.632812 51.726562 -14.296875 51.5625 -13.890625 C 50.039062 -10.566406 48.640625 -7.191406 47.359375 -3.765625 C 46.535156 -1.546875 45.894531 0.722656 45.4375 3.046875 C 45.269531 3.773438 45.210938 4.484375 45.265625 5.171875 C 45.316406 5.859375 45.625 6.472656 46.1875 7.015625 C 46.269531 7.078125 46.296875 7.148438 46.265625 7.234375 C 46.242188 7.316406 46.191406 7.394531 46.109375 7.46875 C 46.035156 7.539062 45.953125 7.59375 45.859375 7.625 C 44.515625 7.820312 43.703125 7.335938 43.421875 6.171875 C 43.265625 5.515625 43.238281 4.835938 43.34375 4.140625 C 43.34375 4.085938 43.34375 4.046875 43.34375 4.015625 C 43.445312 2.828125 43.660156 1.644531 43.984375 0.46875 C 44.304688 -0.707031 44.664062 -1.882812 45.0625 -3.0625 C 46.34375 -6.613281 47.757812 -10.113281 49.3125 -13.5625 C 49.382812 -13.707031 49.445312 -13.859375 49.5 -14.015625 C 49.570312 -14.179688 49.65625 -14.351562 49.75 -14.53125 C 49.875 -14.78125 49.988281 -15.03125 50.09375 -15.28125 C 50.195312 -15.53125 50.238281 -15.796875 50.21875 -16.078125 C 50.09375 -16.171875 49.96875 -16.226562 49.84375 -16.25 C 49.71875 -16.28125 49.59375 -16.285156 49.46875 -16.265625 C 49.4375 -16.265625 49.40625 -16.265625 49.375 -16.265625 C 48.3125 -16.265625 47.238281 -16.25 46.15625 -16.21875 C 45.863281 -16.21875 45.550781 -16.21875 45.21875 -16.21875 C 44.820312 -16.195312 44.484375 -16.070312 44.203125 -15.84375 C 43.929688 -15.625 43.671875 -15.347656 43.421875 -15.015625 C 43.097656 -14.597656 42.769531 -14.175781 42.4375 -13.75 C 41.039062 -11.96875 39.632812 -10.203125 38.21875 -8.453125 C 36.113281 -5.910156 33.914062 -3.457031 31.625 -1.09375 C 29.332031 1.269531 26.90625 3.488281 24.34375 5.5625 C 21.113281 8.21875 17.6875 10.554688 14.0625 12.578125 C 8.519531 15.554688 2.707031 16.96875 -3.375 16.8125 C -9.101562 16.6875 -14.269531 15.140625 -18.875 12.171875 C -20.164062 11.335938 -21.3125 10.335938 -22.3125 9.171875 C -22.976562 8.335938 -23.507812 7.441406 -23.90625 6.484375 C -24.300781 5.523438 -24.5 4.484375 -24.5 3.359375 C -24.4375 2.003906 -24.125 0.753906 -23.5625 -0.390625 C -23 -1.546875 -22.21875 -2.597656 -21.21875 -3.546875 C -19.84375 -4.878906 -18.332031 -6.003906 -16.6875 -6.921875 C -15.082031 -7.847656 -13.429688 -8.660156 -11.734375 -9.359375 C -10.035156 -10.054688 -8.320312 -10.679688 -6.59375 -11.234375 C -3.800781 -12.128906 -0.976562 -12.882812 1.875 -13.5 C 4.726562 -14.113281 7.59375 -14.632812 10.46875 -15.0625 C 17.28125 -16.007812 24.113281 -16.632812 30.96875 -16.9375 C 34.46875 -17.15625 37.957031 -17.265625 41.4375 -17.265625 C 42.382812 -17.242188 43.125 -17.644531 43.65625 -18.46875 C 44.570312 -19.769531 45.492188 -21.070312 46.421875 -22.375 C 47.867188 -24.375 49.289062 -26.410156 50.6875 -28.484375 C 57.1875 -38.179688 63.414062 -48.039062 69.375 -58.0625 C 69.875 -58.914062 70.359375 -59.78125 70.828125 -60.65625 C 71.054688 -61.101562 71.296875 -61.550781 71.546875 -62 C 71.847656 -62.582031 72.320312 -62.910156 72.96875 -62.984375 C 73.320312 -62.984375 73.578125 -62.878906 73.734375 -62.671875 C 73.898438 -62.472656 73.921875 -62.210938 73.796875 -61.890625 C 73.671875 -61.617188 73.53125 -61.359375 73.375 -61.109375 C 72.40625 -59.378906 71.546875 -57.628906 70.796875 -55.859375 C 70.515625 -55.234375 70.238281 -54.617188 69.96875 -54.015625 C 67.34375 -48.316406 64.707031 -42.617188 62.0625 -36.921875 C 60.039062 -32.523438 58 -28.113281 55.9375 -23.6875 C 55.34375 -22.382812 54.757812 -21.082031 54.1875 -19.78125 C 54.0625 -19.507812 53.9375 -19.25 53.8125 -19 C 53.789062 -18.945312 53.765625 -18.882812 53.734375 -18.8125 C 53.660156 -18.632812 53.597656 -18.457031 53.546875 -18.28125 C 53.492188 -18.101562 53.507812 -17.929688 53.59375 -17.765625 C 53.757812 -17.640625 53.957031 -17.566406 54.1875 -17.546875 C 54.414062 -17.535156 54.625 -17.53125 54.8125 -17.53125 C 54.96875 -17.5625 55.109375 -17.578125 55.234375 -17.578125 C 56.179688 -17.546875 57.132812 -17.546875 58.09375 -17.578125 C 59.382812 -17.578125 60.679688 -17.5625 61.984375 -17.53125 C 69.078125 -17.40625 76.175781 -17.253906 83.28125 -17.078125 C 85.601562 -17.035156 87.914062 -16.9375 90.21875 -16.78125 C 90.414062 -16.757812 90.628906 -16.75 90.859375 -16.75 C 90.984375 -16.75 91.117188 -16.75 91.265625 -16.75 C 91.566406 -16.75 91.851562 -16.722656 92.125 -16.671875 C 92.40625 -16.617188 92.671875 -16.519531 92.921875 -16.375 C 92.972656 -16.34375 93.007812 -16.289062 93.03125 -16.21875 C 93.050781 -16.144531 93.050781 -16.082031 93.03125 -16.03125 C 93.03125 -15.957031 93 -15.890625 92.9375 -15.828125 C 92.875 -15.765625 92.816406 -15.722656 92.765625 -15.703125 C 92.566406 -15.617188 92.351562 -15.578125 92.125 -15.578125 Z M 41.3125 -15.390625 C 41.394531 -15.546875 41.40625 -15.6875 41.34375 -15.8125 C 41.28125 -15.9375 41.175781 -16 41.03125 -16 C 40.800781 -16.019531 40.5625 -16.019531 40.3125 -16 C 40.1875 -16 40.0625 -16 39.9375 -16 C 31.351562 -15.894531 22.769531 -15.304688 14.1875 -14.234375 C 10.894531 -13.835938 7.625 -13.3125 4.375 -12.65625 C 1.125 -12.007812 -2.09375 -11.195312 -5.28125 -10.21875 C -6.988281 -9.695312 -8.671875 -9.097656 -10.328125 -8.421875 C -11.984375 -7.753906 -13.601562 -6.953125 -15.1875 -6.015625 C -16.832031 -5.097656 -18.332031 -3.972656 -19.6875 -2.640625 C -21.269531 -1.015625 -22.160156 0.710938 -22.359375 2.546875 C -22.554688 4.378906 -22.0625 6.148438 -20.875 7.859375 C -20 9.046875 -18.957031 10.066406 -17.75 10.921875 C -13.3125 14.066406 -8.03125 15.671875 -1.90625 15.734375 C -0.34375 15.734375 1.457031 15.53125 3.5 15.125 C 5.519531 14.695312 7.472656 14.078125 9.359375 13.265625 C 11.242188 12.453125 13.070312 11.492188 14.84375 10.390625 C 19.21875 7.703125 23.269531 4.566406 27 0.984375 C 29.570312 -1.429688 32 -3.976562 34.28125 -6.65625 C 36.570312 -9.332031 38.789062 -12.054688 40.9375 -14.828125 C 41.0625 -15.035156 41.1875 -15.222656 41.3125 -15.390625 Z M 51.75 -18.921875 C 53.394531 -22.671875 55.09375 -26.410156 56.84375 -30.140625 C 56.925781 -30.335938 57.191406 -30.921875 57.640625 -31.890625 C 58.085938 -32.867188 58.601562 -34 59.1875 -35.28125 C 59.769531 -36.570312 60.304688 -37.789062 60.796875 -38.9375 C 61.285156 -40.09375 61.628906 -40.957031 61.828125 -41.53125 C 62.023438 -42.101562 61.960938 -42.15625 61.640625 -41.6875 C 61.566406 -41.582031 61.503906 -41.484375 61.453125 -41.390625 C 61.179688 -40.984375 60.921875 -40.582031 60.671875 -40.1875 C 58.597656 -36.957031 56.507812 -33.734375 54.40625 -30.515625 C 52.300781 -27.304688 50.125 -24.140625 47.875 -21.015625 C 47.65625 -20.722656 47.4375 -20.410156 47.21875 -20.078125 C 46.78125 -19.484375 46.351562 -18.882812 45.9375 -18.28125 C 45.757812 -18.03125 45.707031 -17.820312 45.78125 -17.65625 C 45.863281 -17.5 46.039062 -17.421875 46.3125 -17.421875 C 46.757812 -17.421875 47.207031 -17.429688 47.65625 -17.453125 C 48.363281 -17.503906 49.0625 -17.53125 49.75 -17.53125 C 50.28125 -17.507812 50.691406 -17.625 50.984375 -17.875 C 51.285156 -18.125 51.539062 -18.472656 51.75 -18.921875 Z M 51.75 -18.921875 "/></g></g></g><g fill="#000000" fill-opacity="1"><g transform="translate(273.816782, 198.056587)"><g><path d="M 17.8125 -8.546875 C 18.207031 -8.785156 18.519531 -8.84375 18.75 -8.71875 C 18.976562 -8.601562 18.894531 -8.253906 18.5 -7.671875 C 18 -7.003906 17.101562 -6.285156 15.8125 -5.515625 C 14.519531 -4.753906 13.378906 -4.421875 12.390625 -4.515625 C 11.398438 -4.617188 11.113281 -5.351562 11.53125 -6.71875 C 11.945312 -8.082031 12.171875 -8.84375 12.203125 -9 C 12.234375 -9.164062 12.203125 -9.257812 12.109375 -9.28125 C 12.015625 -9.3125 11.789062 -9.203125 11.4375 -8.953125 C 10.414062 -8.242188 9.414062 -7.503906 8.4375 -6.734375 C 8.019531 -6.410156 7.601562 -6.078125 7.1875 -5.734375 C 6.9375 -5.503906 6.675781 -5.273438 6.40625 -5.046875 C 6.40625 -5.046875 6.394531 -5.035156 6.375 -5.015625 C 6.082031 -4.710938 5.71875 -4.515625 5.28125 -4.421875 C 5.09375 -4.359375 4.890625 -4.332031 4.671875 -4.34375 C 4.453125 -4.363281 4.269531 -4.453125 4.125 -4.609375 C 3.957031 -4.773438 3.894531 -4.953125 3.9375 -5.140625 C 3.976562 -5.328125 4.117188 -5.609375 4.359375 -5.984375 C 4.597656 -6.359375 4.863281 -6.769531 5.15625 -7.21875 C 5.445312 -7.664062 5.609375 -7.941406 5.640625 -8.046875 C 5.671875 -8.148438 5.65625 -8.253906 5.59375 -8.359375 C 5.507812 -8.453125 5.421875 -8.476562 5.328125 -8.4375 C 5.234375 -8.40625 4.875 -8.164062 4.25 -7.71875 C 3.625 -7.269531 2.769531 -6.640625 1.6875 -5.828125 C 1.1875 -5.453125 0.695312 -5.066406 0.21875 -4.671875 C 0.09375 -4.546875 -0.0390625 -4.429688 -0.1875 -4.328125 C -0.539062 -4.035156 -0.925781 -3.878906 -1.34375 -3.859375 C -1.65625 -3.828125 -1.882812 -3.890625 -2.03125 -4.046875 C -2.175781 -4.210938 -2.195312 -4.429688 -2.09375 -4.703125 C -2.03125 -4.910156 -1.945312 -5.097656 -1.84375 -5.265625 C -1.78125 -5.347656 -1.738281 -5.425781 -1.71875 -5.5 C -0.820312 -7.320312 0.0625 -9.144531 0.9375 -10.96875 C 0.957031 -11.019531 0.976562 -11.082031 1 -11.15625 C 1.101562 -11.351562 1.207031 -11.539062 1.3125 -11.71875 C 1.582031 -12.019531 1.90625 -12.117188 2.28125 -12.015625 C 2.71875 -11.890625 2.882812 -11.640625 2.78125 -11.265625 C 2.570312 -10.691406 2.375 -10.128906 2.1875 -9.578125 C 2.082031 -9.328125 1.976562 -9.078125 1.875 -8.828125 C 1.707031 -8.390625 1.65625 -8.109375 1.71875 -7.984375 C 1.78125 -7.859375 2.0625 -7.941406 2.5625 -8.234375 C 2.894531 -8.460938 3.226562 -8.6875 3.5625 -8.90625 C 3.957031 -9.1875 4.34375 -9.4375 4.71875 -9.65625 C 5.300781 -10.007812 5.894531 -10.3125 6.5 -10.5625 C 6.789062 -10.6875 7.09375 -10.78125 7.40625 -10.84375 C 7.71875 -10.90625 8.007812 -10.835938 8.28125 -10.640625 C 8.488281 -10.460938 8.578125 -10.265625 8.546875 -10.046875 C 8.515625 -9.835938 8.457031 -9.632812 8.375 -9.4375 C 8.207031 -9.0625 8.140625 -8.820312 8.171875 -8.71875 C 8.203125 -8.625 8.289062 -8.609375 8.4375 -8.671875 C 8.582031 -8.734375 8.84375 -8.875 9.21875 -9.09375 C 9.59375 -9.320312 10 -9.570312 10.4375 -9.84375 C 10.976562 -10.195312 11.550781 -10.535156 12.15625 -10.859375 C 12.65625 -11.179688 13.1875 -11.378906 13.75 -11.453125 C 14.539062 -11.503906 14.863281 -11.1875 14.71875 -10.5 C 14.570312 -9.8125 14.296875 -8.992188 13.890625 -8.046875 C 13.484375 -7.097656 13.441406 -6.515625 13.765625 -6.296875 C 14.085938 -6.085938 14.804688 -6.382812 15.921875 -7.1875 C 17.035156 -7.988281 17.664062 -8.441406 17.8125 -8.546875 Z M 17.8125 -8.546875 "/></g></g></g><g fill="#000000" fill-opacity="1"><g transform="translate(291.147282, 198.056587)"><g><path d="M 12.359375 -8.671875 C 12.628906 -8.523438 12.648438 -8.15625 12.421875 -7.5625 C 12.097656 -7.132812 11.75 -6.734375 11.375 -6.359375 C 11 -5.984375 10.585938 -5.648438 10.140625 -5.359375 C 10.109375 -5.359375 10.09375 -5.34375 10.09375 -5.3125 C 9.789062 -5.113281 9.476562 -4.941406 9.15625 -4.796875 C 6.4375 -3.816406 5.050781 -4.390625 5 -6.515625 C 3.894531 -5.554688 3.15625 -4.96875 2.78125 -4.75 C 1.882812 -4.21875 0.910156 -3.984375 -0.140625 -4.046875 C -0.910156 -4.085938 -1.429688 -4.320312 -1.703125 -4.75 C -1.984375 -5.175781 -1.960938 -5.753906 -1.640625 -6.484375 C -1.140625 -7.628906 -0.425781 -8.648438 0.5 -9.546875 C 1.570312 -10.546875 2.769531 -11.347656 4.09375 -11.953125 C 4.789062 -12.296875 5.53125 -12.429688 6.3125 -12.359375 C 7.082031 -12.304688 7.546875 -11.867188 7.703125 -11.046875 C 7.773438 -10.796875 7.710938 -10.570312 7.515625 -10.375 C 7.265625 -10.144531 6.972656 -10.09375 6.640625 -10.21875 C 6.617188 -10.21875 6.585938 -10.222656 6.546875 -10.234375 C 6.515625 -10.253906 6.484375 -10.273438 6.453125 -10.296875 C 6.128906 -10.742188 5.796875 -10.929688 5.453125 -10.859375 C 5.117188 -10.785156 4.765625 -10.632812 4.390625 -10.40625 C 2.640625 -9.382812 1.34375 -7.960938 0.5 -6.140625 C 0.445312 -6.054688 0.414062 -5.96875 0.40625 -5.875 C 0.394531 -5.78125 0.425781 -5.703125 0.5 -5.640625 C 0.695312 -5.578125 0.921875 -5.59375 1.171875 -5.6875 C 1.421875 -5.78125 1.671875 -5.921875 1.921875 -6.109375 C 2.171875 -6.296875 2.382812 -6.453125 2.5625 -6.578125 C 2.582031 -6.609375 2.59375 -6.625 2.59375 -6.625 C 3.414062 -7.320312 4.226562 -8.035156 5.03125 -8.765625 C 5.382812 -9.140625 5.820312 -9.347656 6.34375 -9.390625 C 7.09375 -9.390625 7.40625 -9.054688 7.28125 -8.390625 C 7.207031 -8.140625 7.132812 -7.890625 7.0625 -7.640625 C 6.757812 -6.554688 6.742188 -5.921875 7.015625 -5.734375 C 7.296875 -5.546875 7.71875 -5.546875 8.28125 -5.734375 C 8.84375 -5.921875 9.40625 -6.28125 9.96875 -6.8125 C 10.53125 -7.34375 11.003906 -7.820312 11.390625 -8.25 C 11.773438 -8.6875 12.097656 -8.828125 12.359375 -8.671875 Z M 12.359375 -8.671875 "/></g></g></g><g fill="#000000" fill-opacity="1"><g transform="translate(301.746844, 198.056587)"><g><path d="M 8.171875 -10.453125 C 8.078125 -9.671875 7.710938 -9.160156 7.078125 -8.921875 C 6.441406 -8.691406 6.234375 -9.003906 6.453125 -9.859375 C 6.671875 -10.722656 6.28125 -10.941406 5.28125 -10.515625 C 4.28125 -10.097656 3.457031 -9.5625 2.8125 -8.90625 C 1.8125 -7.882812 0.925781 -6.785156 0.15625 -5.609375 C 0.0703125 -5.503906 0.0078125 -5.421875 -0.03125 -5.359375 C -0.257812 -5.023438 -0.488281 -4.710938 -0.71875 -4.421875 C -0.863281 -4.210938 -1.035156 -4.082031 -1.234375 -4.03125 C -1.429688 -3.976562 -1.632812 -3.96875 -1.84375 -4 C -2.03125 -4.03125 -2.175781 -4.109375 -2.28125 -4.234375 C -2.382812 -4.359375 -2.394531 -4.503906 -2.3125 -4.671875 C -2.1875 -4.972656 -2.039062 -5.285156 -1.875 -5.609375 C -0.851562 -7.503906 0.1875 -9.40625 1.25 -11.3125 C 1.269531 -11.332031 1.28125 -11.359375 1.28125 -11.390625 C 1.425781 -11.679688 1.601562 -11.953125 1.8125 -12.203125 C 2.03125 -12.453125 2.285156 -12.550781 2.578125 -12.5 C 2.878906 -12.457031 3.082031 -12.285156 3.1875 -11.984375 C 3.3125 -11.585938 3.414062 -11.363281 3.5 -11.3125 C 3.59375 -11.257812 3.800781 -11.296875 4.125 -11.421875 C 4.800781 -11.671875 5.460938 -11.84375 6.109375 -11.9375 C 6.765625 -12.039062 7.296875 -12.015625 7.703125 -11.859375 C 8.117188 -11.710938 8.273438 -11.242188 8.171875 -10.453125 Z M 8.171875 -10.453125 "/></g></g></g><g fill="#000000" fill-opacity="1"><g transform="translate(309.568821, 198.056587)"><g><path d="M 12.359375 -8.671875 C 12.628906 -8.523438 12.648438 -8.15625 12.421875 -7.5625 C 12.097656 -7.132812 11.75 -6.734375 11.375 -6.359375 C 11 -5.984375 10.585938 -5.648438 10.140625 -5.359375 C 10.109375 -5.359375 10.09375 -5.34375 10.09375 -5.3125 C 9.789062 -5.113281 9.476562 -4.941406 9.15625 -4.796875 C 6.4375 -3.816406 5.050781 -4.390625 5 -6.515625 C 3.894531 -5.554688 3.15625 -4.96875 2.78125 -4.75 C 1.882812 -4.21875 0.910156 -3.984375 -0.140625 -4.046875 C -0.910156 -4.085938 -1.429688 -4.320312 -1.703125 -4.75 C -1.984375 -5.175781 -1.960938 -5.753906 -1.640625 -6.484375 C -1.140625 -7.628906 -0.425781 -8.648438 0.5 -9.546875 C 1.570312 -10.546875 2.769531 -11.347656 4.09375 -11.953125 C 4.789062 -12.296875 5.53125 -12.429688 6.3125 -12.359375 C 7.082031 -12.304688 7.546875 -11.867188 7.703125 -11.046875 C 7.773438 -10.796875 7.710938 -10.570312 7.515625 -10.375 C 7.265625 -10.144531 6.972656 -10.09375 6.640625 -10.21875 C 6.617188 -10.21875 6.585938 -10.222656 6.546875 -10.234375 C 6.515625 -10.253906 6.484375 -10.273438 6.453125 -10.296875 C 6.128906 -10.742188 5.796875 -10.929688 5.453125 -10.859375 C 5.117188 -10.785156 4.765625 -10.632812 4.390625 -10.40625 C 2.640625 -9.382812 1.34375 -7.960938 0.5 -6.140625 C 0.445312 -6.054688 0.414062 -5.96875 0.40625 -5.875 C 0.394531 -5.78125 0.425781 -5.703125 0.5 -5.640625 C 0.695312 -5.578125 0.921875 -5.59375 1.171875 -5.6875 C 1.421875 -5.78125 1.671875 -5.921875 1.921875 -6.109375 C 2.171875 -6.296875 2.382812 -6.453125 2.5625 -6.578125 C 2.582031 -6.609375 2.59375 -6.625 2.59375 -6.625 C 3.414062 -7.320312 4.226562 -8.035156 5.03125 -8.765625 C 5.382812 -9.140625 5.820312 -9.347656 6.34375 -9.390625 C 7.09375 -9.390625 7.40625 -9.054688 7.28125 -8.390625 C 7.207031 -8.140625 7.132812 -7.890625 7.0625 -7.640625 C 6.757812 -6.554688 6.742188 -5.921875 7.015625 -5.734375 C 7.296875 -5.546875 7.71875 -5.546875 8.28125 -5.734375 C 8.84375 -5.921875 9.40625 -6.28125 9.96875 -6.8125 C 10.53125 -7.34375 11.003906 -7.820312 11.390625 -8.25 C 11.773438 -8.6875 12.097656 -8.828125 12.359375 -8.671875 Z M 12.359375 -8.671875 "/></g></g></g><g fill="#000000" fill-opacity="1"><g transform="translate(320.175651, 198.056587)"><g/></g></g></svg>